<?xml version="1.0" standalone="no"?>
<!DOCTYPE svg PUBLIC "-//W3C//DTD SVG 20010904//EN"
 "http://www.w3.org/TR/2001/REC-SVG-20010904/DTD/svg10.dtd">
<svg version="1.0" xmlns="http://www.w3.org/2000/svg"
 width="300.000000pt" height="300.000000pt" viewBox="0 0 300.000000 300.000000"
 preserveAspectRatio="xMidYMid meet">
<metadata>
Created by potrace 1.10, written by Peter Selinger 2001-2011
</metadata>
<g transform="translate(0.000000,300.000000) scale(0.100000,-0.100000)"
fill="#0028f0" stroke="none">
<path d="M1390 2669 c-95 -12 -186 -61 -227 -123 -41 -61 -57 -117 -50 -183 5
-49 4 -52 -22 -63 -43 -17 -125 -89 -178 -155 -162 -203 -196 -478 -88 -712
56 -120 169 -251 254 -292 33 -15 33 -15 58 13 38 45 26 77 -62 165 -127 126
-182 265 -172 431 10 152 64 264 187 384 38 38 70 74 70 80 0 6 24 -12 53 -40
28 -28 69 -63 90 -78 20 -15 37 -31 37 -37 0 -5 -12 -28 -27 -51 l-28 -41 -5
-356 -5 -356 -32 -44 c-39 -52 -40 -61 -10 -89 22 -21 33 -22 168 -22 194 0
217 15 164 106 -25 42 -25 49 -23 186 l3 143 95 7 c52 4 108 11 123 17 50 19
95 62 122 114 22 45 25 63 25 156 -1 176 -30 216 -296 402 -156 109 -175 125
-172 147 2 19 11 28 33 34 39 10 52 -4 36 -39 -12 -25 -10 -30 14 -50 24 -21
36 -23 136 -23 99 0 128 -7 99 -25 -5 -3 -10 -22 -10 -41 0 -31 10 -46 70
-108 137 -141 180 -237 180 -410 0 -161 -55 -286 -180 -409 -78 -77 -89 -113
-49 -156 25 -26 47 -22 101 21 120 94 217 244 252 389 22 91 21 228 -4 323
-37 144 -143 308 -244 377 -44 29 -45 39 -7 39 17 0 42 10 57 23 l26 23 -56
104 c-69 126 -83 143 -161 180 -94 46 -200 58 -345 39z m209 -40 c36 -5 86
-19 113 -31 59 -25 123 -93 139 -147 6 -22 25 -52 40 -67 16 -15 29 -31 29
-36 0 -4 -88 -8 -196 -8 l-195 0 35 44 c32 38 34 45 21 56 -25 21 -106 24
-147 7 -40 -17 -55 -48 -44 -92 7 -27 13 -32 216 -171 149 -102 207 -152 240
-207 17 -26 20 -50 20 -139 0 -117 -8 -149 -48 -192 -44 -46 -79 -56 -207 -56
l-115 0 0 -183 0 -183 36 -42 36 -42 -172 0 -172 0 47 53 46 52 -3 345 c-2
339 -2 346 20 387 12 23 35 50 52 60 16 9 30 20 30 23 0 3 -39 32 -86 64 -47
33 -96 73 -110 89 -89 105 -96 240 -18 326 72 80 232 117 393 90z m-480 -386
c0 -34 -6 -43 -53 -80 -155 -122 -237 -364 -192 -566 27 -121 77 -209 168
-300 63 -63 78 -83 78 -108 0 -26 -2 -29 -19 -19 -76 40 -178 157 -232 265
-137 277 -59 605 191 801 30 24 56 44 58 44 1 0 2 -17 1 -37z m735 -13 c111
-88 198 -224 230 -360 20 -83 20 -229 1 -305 -23 -89 -87 -213 -144 -277 -43
-47 -139 -128 -153 -128 -2 0 -2 17 0 38 3 30 11 42 42 65 48 34 125 135 158
205 38 83 52 149 52 247 0 171 -51 295 -171 418 -52 53 -78 87 -81 107 -3 17
0 30 5 30 5 0 32 -18 61 -40z"/>
<path d="M1516 1864 c-21 -21 -20 -57 2 -77 28 -26 202 -24 225 1 22 24 21 55
-1 75 -26 24 -203 24 -226 1z m184 -39 c0 -12 -14 -15 -69 -15 -65 0 -90 8
-74 24 3 3 37 6 75 6 54 0 68 -3 68 -15z"/>
<path d="M877 975 c-69 -24 -97 -65 -97 -145 0 -45 4 -55 39 -92 35 -38 43
-42 97 -46 37 -2 72 1 94 10 29 12 40 12 75 0 25 -9 60 -12 95 -8 76 8 90 8
128 0 29 -6 38 -2 68 27 25 24 34 28 34 17 0 -49 134 -68 189 -27 l29 21 39
-22 c34 -19 49 -21 114 -16 91 7 94 7 200 1 85 -5 88 -4 115 24 16 16 46 34
66 40 52 17 78 53 78 108 0 38 -6 51 -33 78 l-34 34 -194 -1 c-183 0 -195 -1
-216 -21 -13 -11 -23 -27 -23 -36 0 -9 -13 -1 -34 22 -40 44 -86 50 -123 15
l-23 -21 -23 21 c-33 31 -87 29 -117 -3 l-23 -25 -23 23 c-22 22 -32 24 -146
25 -96 1 -128 -2 -147 -14 -21 -15 -27 -14 -60 0 -50 22 -100 26 -144 11z
m135 -46 c24 -13 38 -49 38 -100 0 -31 -7 -47 -29 -70 -26 -25 -37 -29 -85
-29 -47 0 -60 4 -85 28 -60 54 -44 154 29 179 37 13 99 9 132 -8z m207 5 c2
-2 10 1 18 7 10 9 13 4 13 -25 0 -34 -2 -37 -22 -30 -33 12 -88 11 -87 -1 1
-5 23 -18 50 -28 55 -20 73 -44 63 -82 -9 -37 -36 -47 -114 -43 l-70 3 0 33
c0 37 -3 36 43 17 20 -8 46 -15 57 -15 33 0 23 27 -14 40 -128 42 -104 153 29
132 17 -3 32 -6 34 -8z m133 -29 l-5 -45 53 0 53 0 -5 43 -5 42 36 0 36 0 -2
-105 -2 -105 44 90 c24 50 44 96 44 103 1 7 15 12 37 12 35 0 36 -1 81 -100
26 -55 51 -100 56 -100 5 0 7 44 5 103 l-3 102 85 -3 c97 -4 120 -17 120 -68
0 -23 -7 -38 -22 -48 l-22 -16 20 -27 c38 -53 38 -53 -11 -53 -28 0 -44 4 -40
10 8 14 -33 70 -51 70 -17 0 -19 -51 -2 -68 9 -9 -8 -12 -79 -12 -86 0 -91 1
-86 20 5 18 0 20 -52 20 -52 0 -57 -2 -52 -20 5 -19 0 -20 -68 -20 l-73 0 5
43 5 42 -52 0 -52 0 4 -42 3 -43 -44 0 c-37 0 -42 2 -31 14 7 10 10 45 8 105
l-3 90 35 4 c19 2 36 4 36 5 1 1 -1 -18 -4 -43z m836 22 c18 -12 16 -102 -4
-118 -9 -7 -38 -13 -66 -13 l-50 0 4 -33 c4 -32 3 -33 -32 -33 l-35 0 0 108 0
107 85 -5 c47 -3 91 -9 98 -13z"/>
<path d="M890 881 c-18 -34 -12 -78 12 -95 30 -21 44 -20 68 4 25 25 26 72 2
93 -25 23 -69 22 -82 -2z"/>
<path d="M1840 875 c0 -24 3 -26 38 -23 29 2 37 7 37 23 0 16 -8 21 -37 23
-35 3 -38 1 -38 -23z"/>
<path d="M1617 845 l-17 -35 35 0 36 0 -17 33 c-9 17 -17 33 -18 34 -2 2 -10
-13 -19 -32z"/>
<path d="M2070 864 c0 -29 3 -35 16 -30 9 3 24 6 34 6 22 0 34 28 19 46 -6 8
-24 14 -40 14 -27 0 -29 -3 -29 -36z"/>
<path d="M1315 662 c-2 -2 -62 -3 -134 -3 -143 0 -157 -2 -172 -31 -9 -16 -6
-25 11 -43 l23 -24 452 0 c425 -1 454 0 476 17 23 19 22 49 -3 56 -7 2 -31 9
-53 15 -35 11 -591 22 -600 13z m-170 -37 c28 0 41 -5 43 -15 2 -12 -9 -15
-53 -15 -30 0 -55 4 -55 8 0 4 -8 3 -19 -2 -20 -11 -31 -5 -31 15 0 7 8 11 20
9 11 -2 22 1 25 6 4 5 12 6 18 2 7 -5 30 -8 52 -8z m221 -5 c8 0 14 5 14 11 0
6 9 8 23 3 12 -4 28 -7 35 -7 7 0 11 -7 10 -16 -2 -12 -15 -16 -46 -16 -23 0
-42 5 -42 10 0 7 -3 7 -8 0 -8 -12 -72 -13 -89 -2 -7 5 -13 4 -13 -1 0 -5 -10
-9 -22 -8 -13 1 -23 7 -23 16 0 12 14 15 68 14 41 0 67 3 68 10 0 6 3 6 6 -1
2 -7 11 -13 19 -13z m379 5 c49 -1 83 2 87 9 6 8 8 8 8 -1 0 -7 12 -10 30 -8
16 2 32 0 35 -6 4 -5 19 -9 36 -9 16 0 29 -4 29 -8 0 -12 -293 -9 -302 3 -5 6
-8 6 -8 -1 0 -6 -7 -11 -15 -11 -9 0 -15 10 -15 25 0 19 4 23 18 16 9 -4 53
-8 97 -9z m-130 -15 c0 -11 -16 -14 -73 -15 -41 0 -76 3 -79 8 -10 17 9 22 79
22 57 0 73 -3 73 -15z"/>
</g>
</svg>
